<svg width="215" height="313" viewBox="0 0 215 313" fill="none" xmlns="http://www.w3.org/2000/svg">
<g clip-path="url(#clip0_81_34)">
<path d="M174.805 251.275H190.566V167.826L174.805 183.164V251.275Z" fill="#FFCA08"/>
<path d="M198.425 183.164V251.275H214.187V167.826L198.425 183.164Z" fill="#FFCA08"/>
<path d="M97.6218 183.164H75.3567L49.7495 206.914L24.1197 183.164H1.85449L38.6169 217.23L1.85449 251.275H24.1197L49.7495 227.546L75.3567 251.275H97.6218L60.882 217.23L97.6218 183.164Z" fill="#FFCA08"/>
<path d="M126.255 236.69L105.232 217.23L126.233 197.77H151.23L166.969 183.164H119.729L94.0994 206.914L82.9668 217.23L94.0994 227.546L119.729 251.275H166.969L151.23 236.69H126.255Z" fill="#FFCA08"/>
</g>
<g clip-path="url(#clip1_81_34)">
<path d="M46.3613 83.4412L129.672 0V47.1445L46.3613 130.586V83.4412Z" fill="#FFCA08"/>
<path d="M166.899 131.765H112.45L130.6 137.189V167.836H94.5352V131.775L129.671 96.1855H166.899V131.775V131.765Z" fill="white"/>
</g>
<path d="M22.0859 267.172V268.359H13.8672V267.508L18.9609 259.625H20.1406L18.875 261.906L15.5078 267.172H22.0859ZM20.5 259.625V271H19.0547V259.625H20.5ZM27.6484 262.547H29.0938V269.812H32.1875V262.547H33.6406V269.812H36.7266V262.547H38.1719V271H27.6484V262.547ZM43.9219 262.547V271H42.4688V262.547H43.9219ZM46.7578 262.547V263.719H39.6875V262.547H46.7578ZM50.6484 270.125L53 262.547H54.5469L51.1562 272.305C51.0781 272.513 50.974 272.737 50.8438 272.977C50.7188 273.221 50.5573 273.453 50.3594 273.672C50.1615 273.891 49.9219 274.068 49.6406 274.203C49.3646 274.344 49.0339 274.414 48.6484 274.414C48.5339 274.414 48.388 274.398 48.2109 274.367C48.0339 274.336 47.9089 274.31 47.8359 274.289L47.8281 273.117C47.8698 273.122 47.9349 273.128 48.0234 273.133C48.1172 273.143 48.1823 273.148 48.2188 273.148C48.5469 273.148 48.8255 273.104 49.0547 273.016C49.2839 272.932 49.4766 272.789 49.6328 272.586C49.7943 272.388 49.9323 272.115 50.0469 271.766L50.6484 270.125ZM48.9219 262.547L51.1172 269.109L51.4922 270.633L50.4531 271.164L47.3438 262.547H48.9219ZM57.2969 264.172V274.25H55.8438V262.547H57.1719L57.2969 264.172ZM62.9922 266.703V266.867C62.9922 267.482 62.9193 268.052 62.7734 268.578C62.6276 269.099 62.4141 269.552 62.1328 269.938C61.8568 270.323 61.5156 270.622 61.1094 270.836C60.7031 271.049 60.237 271.156 59.7109 271.156C59.1745 271.156 58.7005 271.068 58.2891 270.891C57.8776 270.714 57.5286 270.456 57.2422 270.117C56.9557 269.779 56.7266 269.372 56.5547 268.898C56.388 268.424 56.2734 267.891 56.2109 267.297V266.422C56.2734 265.797 56.3906 265.237 56.5625 264.742C56.7344 264.247 56.9609 263.826 57.2422 263.477C57.5286 263.122 57.875 262.854 58.2812 262.672C58.6875 262.484 59.1562 262.391 59.6875 262.391C60.2188 262.391 60.6901 262.495 61.1016 262.703C61.513 262.906 61.8594 263.198 62.1406 263.578C62.4219 263.958 62.6328 264.414 62.7734 264.945C62.9193 265.471 62.9922 266.057 62.9922 266.703ZM61.5391 266.867V266.703C61.5391 266.281 61.4948 265.885 61.4062 265.516C61.3177 265.141 61.1797 264.812 60.9922 264.531C60.8099 264.245 60.5755 264.021 60.2891 263.859C60.0026 263.693 59.6615 263.609 59.2656 263.609C58.901 263.609 58.5833 263.672 58.3125 263.797C58.0469 263.922 57.8203 264.091 57.6328 264.305C57.4453 264.513 57.2917 264.753 57.1719 265.023C57.0573 265.289 56.9714 265.565 56.9141 265.852V267.875C57.0182 268.24 57.1641 268.583 57.3516 268.906C57.5391 269.224 57.7891 269.482 58.1016 269.68C58.4141 269.872 58.8073 269.969 59.2812 269.969C59.6719 269.969 60.0078 269.888 60.2891 269.727C60.5755 269.56 60.8099 269.333 60.9922 269.047C61.1797 268.76 61.3177 268.432 61.4062 268.062C61.4948 267.688 61.5391 267.289 61.5391 266.867ZM69.6953 269.078L72.5703 262.547H73.9609L70.1953 271H69.1953L65.4453 262.547H66.8359L69.6953 269.078ZM66.4141 262.547V271H64.9688V262.547H66.4141ZM72.9297 271V262.547H74.3828V271H72.9297ZM76.3281 266.867V266.688C76.3281 266.078 76.4167 265.513 76.5938 264.992C76.7708 264.466 77.026 264.01 77.3594 263.625C77.6927 263.234 78.0964 262.932 78.5703 262.719C79.0443 262.5 79.5755 262.391 80.1641 262.391C80.7578 262.391 81.2917 262.5 81.7656 262.719C82.2448 262.932 82.651 263.234 82.9844 263.625C83.3229 264.01 83.5807 264.466 83.7578 264.992C83.9349 265.513 84.0234 266.078 84.0234 266.688V266.867C84.0234 267.477 83.9349 268.042 83.7578 268.562C83.5807 269.083 83.3229 269.539 82.9844 269.93C82.651 270.315 82.2474 270.617 81.7734 270.836C81.3047 271.049 80.7734 271.156 80.1797 271.156C79.5859 271.156 79.0521 271.049 78.5781 270.836C78.1042 270.617 77.6979 270.315 77.3594 269.93C77.026 269.539 76.7708 269.083 76.5938 268.562C76.4167 268.042 76.3281 267.477 76.3281 266.867ZM77.7734 266.688V266.867C77.7734 267.289 77.8229 267.688 77.9219 268.062C78.0208 268.432 78.1693 268.76 78.3672 269.047C78.5703 269.333 78.8229 269.56 79.125 269.727C79.4271 269.888 79.7786 269.969 80.1797 269.969C80.5755 269.969 80.9219 269.888 81.2188 269.727C81.5208 269.56 81.7708 269.333 81.9688 269.047C82.1667 268.76 82.3151 268.432 82.4141 268.062C82.5182 267.688 82.5703 267.289 82.5703 266.867V266.688C82.5703 266.271 82.5182 265.878 82.4141 265.508C82.3151 265.133 82.1641 264.802 81.9609 264.516C81.763 264.224 81.513 263.995 81.2109 263.828C80.9141 263.661 80.5651 263.578 80.1641 263.578C79.7682 263.578 79.4193 263.661 79.1172 263.828C78.8203 263.995 78.5703 264.224 78.3672 264.516C78.1693 264.802 78.0208 265.133 77.9219 265.508C77.8229 265.878 77.7734 266.271 77.7734 266.688ZM89.8047 267.281H87.0312L87.0156 266.125H89.2812C89.7292 266.125 90.1016 266.081 90.3984 265.992C90.7005 265.904 90.9271 265.771 91.0781 265.594C91.2292 265.417 91.3047 265.198 91.3047 264.938C91.3047 264.734 91.2604 264.557 91.1719 264.406C91.0885 264.25 90.9609 264.122 90.7891 264.023C90.6172 263.919 90.4036 263.844 90.1484 263.797C89.8984 263.745 89.6042 263.719 89.2656 263.719H87.4141V271H85.9688V262.547H89.2656C89.8021 262.547 90.2839 262.594 90.7109 262.688C91.1432 262.781 91.5104 262.924 91.8125 263.117C92.1198 263.305 92.3542 263.544 92.5156 263.836C92.6771 264.128 92.7578 264.471 92.7578 264.867C92.7578 265.122 92.7057 265.365 92.6016 265.594C92.4974 265.823 92.3438 266.026 92.1406 266.203C91.9375 266.38 91.6875 266.526 91.3906 266.641C91.0938 266.75 90.7526 266.82 90.3672 266.852L89.8047 267.281ZM89.8047 271H86.5078L87.2266 269.828H89.8047C90.2057 269.828 90.5391 269.779 90.8047 269.68C91.0703 269.576 91.2682 269.43 91.3984 269.242C91.5339 269.049 91.6016 268.82 91.6016 268.555C91.6016 268.289 91.5339 268.062 91.3984 267.875C91.2682 267.682 91.0703 267.536 90.8047 267.438C90.5391 267.333 90.2057 267.281 89.8047 267.281H87.6094L87.625 266.125H90.3672L90.8906 266.562C91.3542 266.599 91.7474 266.714 92.0703 266.906C92.3932 267.099 92.638 267.344 92.8047 267.641C92.9714 267.932 93.0547 268.25 93.0547 268.594C93.0547 268.99 92.9792 269.339 92.8281 269.641C92.6823 269.943 92.4688 270.195 92.1875 270.398C91.9062 270.596 91.5651 270.747 91.1641 270.852C90.763 270.951 90.3099 271 89.8047 271ZM96.5547 268.711L100.453 262.547H101.906V271H100.453V264.836L96.5547 271H95.1172V262.547H96.5547V268.711ZM105.789 268.711L109.688 262.547H111.141V271H109.688V264.836L105.789 271H104.352V262.547H105.789V268.711ZM108.898 259.484H110.07C110.07 259.891 109.977 260.253 109.789 260.57C109.602 260.883 109.333 261.128 108.984 261.305C108.635 261.482 108.221 261.57 107.742 261.57C107.018 261.57 106.445 261.378 106.023 260.992C105.607 260.602 105.398 260.099 105.398 259.484H106.57C106.57 259.792 106.659 260.062 106.836 260.297C107.013 260.531 107.315 260.648 107.742 260.648C108.159 260.648 108.456 260.531 108.633 260.297C108.81 260.062 108.898 259.792 108.898 259.484ZM122.852 258.867H124.039C124.039 259.378 123.961 259.784 123.805 260.086C123.648 260.383 123.435 260.612 123.164 260.773C122.898 260.935 122.596 261.057 122.258 261.141C121.924 261.224 121.578 261.305 121.219 261.383C120.771 261.477 120.354 261.625 119.969 261.828C119.589 262.026 119.26 262.307 118.984 262.672C118.714 263.036 118.513 263.51 118.383 264.094C118.258 264.677 118.224 265.398 118.281 266.258V266.977H117.094V266.258C117.094 265.294 117.185 264.453 117.367 263.734C117.555 263.016 117.818 262.409 118.156 261.914C118.495 261.419 118.896 261.026 119.359 260.734C119.828 260.443 120.344 260.242 120.906 260.133C121.312 260.055 121.661 259.971 121.953 259.883C122.245 259.789 122.466 259.664 122.617 259.508C122.773 259.352 122.852 259.138 122.852 258.867ZM121.141 263.031C121.693 263.031 122.185 263.128 122.617 263.32C123.049 263.513 123.417 263.781 123.719 264.125C124.021 264.469 124.25 264.875 124.406 265.344C124.568 265.807 124.648 266.312 124.648 266.859V267.031C124.648 267.62 124.562 268.167 124.391 268.672C124.224 269.172 123.977 269.609 123.648 269.984C123.326 270.354 122.93 270.643 122.461 270.852C121.997 271.06 121.469 271.164 120.875 271.164C120.281 271.164 119.75 271.06 119.281 270.852C118.818 270.643 118.422 270.354 118.094 269.984C117.766 269.609 117.516 269.172 117.344 268.672C117.177 268.167 117.094 267.62 117.094 267.031V266.859C117.094 266.729 117.117 266.602 117.164 266.477C117.211 266.352 117.268 266.224 117.336 266.094C117.409 265.964 117.474 265.826 117.531 265.68C117.724 265.211 117.987 264.776 118.32 264.375C118.659 263.974 119.062 263.651 119.531 263.406C120.005 263.156 120.542 263.031 121.141 263.031ZM120.859 264.211C120.328 264.211 119.891 264.333 119.547 264.578C119.208 264.823 118.956 265.148 118.789 265.555C118.622 265.956 118.539 266.391 118.539 266.859V267.031C118.539 267.427 118.586 267.802 118.68 268.156C118.773 268.51 118.914 268.826 119.102 269.102C119.294 269.372 119.536 269.586 119.828 269.742C120.125 269.898 120.474 269.977 120.875 269.977C121.276 269.977 121.622 269.898 121.914 269.742C122.206 269.586 122.445 269.372 122.633 269.102C122.82 268.826 122.961 268.51 123.055 268.156C123.148 267.802 123.195 267.427 123.195 267.031V266.859C123.195 266.505 123.148 266.169 123.055 265.852C122.961 265.534 122.818 265.253 122.625 265.008C122.438 264.763 122.195 264.57 121.898 264.43C121.607 264.284 121.26 264.211 120.859 264.211ZM131.273 269.555V265.203C131.273 264.87 131.206 264.581 131.07 264.336C130.94 264.086 130.742 263.893 130.477 263.758C130.211 263.622 129.883 263.555 129.492 263.555C129.128 263.555 128.807 263.617 128.531 263.742C128.26 263.867 128.047 264.031 127.891 264.234C127.74 264.438 127.664 264.656 127.664 264.891H126.219C126.219 264.589 126.297 264.289 126.453 263.992C126.609 263.695 126.833 263.427 127.125 263.188C127.422 262.943 127.776 262.75 128.188 262.609C128.604 262.464 129.068 262.391 129.578 262.391C130.193 262.391 130.734 262.495 131.203 262.703C131.677 262.911 132.047 263.227 132.312 263.648C132.583 264.065 132.719 264.589 132.719 265.219V269.156C132.719 269.438 132.742 269.737 132.789 270.055C132.841 270.372 132.917 270.646 133.016 270.875V271H131.508C131.435 270.833 131.378 270.612 131.336 270.336C131.294 270.055 131.273 269.794 131.273 269.555ZM131.523 265.875L131.539 266.891H130.078C129.667 266.891 129.299 266.924 128.977 266.992C128.654 267.055 128.383 267.151 128.164 267.281C127.945 267.411 127.779 267.576 127.664 267.773C127.549 267.966 127.492 268.193 127.492 268.453C127.492 268.719 127.552 268.961 127.672 269.18C127.792 269.398 127.971 269.573 128.211 269.703C128.456 269.828 128.755 269.891 129.109 269.891C129.552 269.891 129.943 269.797 130.281 269.609C130.62 269.422 130.888 269.193 131.086 268.922C131.289 268.651 131.398 268.388 131.414 268.133L132.031 268.828C131.995 269.047 131.896 269.289 131.734 269.555C131.573 269.82 131.357 270.076 131.086 270.32C130.82 270.56 130.503 270.76 130.133 270.922C129.768 271.078 129.357 271.156 128.898 271.156C128.326 271.156 127.823 271.044 127.391 270.82C126.964 270.596 126.63 270.297 126.391 269.922C126.156 269.542 126.039 269.117 126.039 268.648C126.039 268.195 126.128 267.797 126.305 267.453C126.482 267.104 126.737 266.815 127.07 266.586C127.404 266.352 127.805 266.174 128.273 266.055C128.742 265.935 129.266 265.875 129.844 265.875H131.523ZM138.312 262.547V271H136.859V262.547H138.312ZM141.148 262.547V263.719H134.078V262.547H141.148ZM147.43 269.555V265.203C147.43 264.87 147.362 264.581 147.227 264.336C147.096 264.086 146.898 263.893 146.633 263.758C146.367 263.622 146.039 263.555 145.648 263.555C145.284 263.555 144.964 263.617 144.688 263.742C144.417 263.867 144.203 264.031 144.047 264.234C143.896 264.438 143.82 264.656 143.82 264.891H142.375C142.375 264.589 142.453 264.289 142.609 263.992C142.766 263.695 142.99 263.427 143.281 263.188C143.578 262.943 143.932 262.75 144.344 262.609C144.76 262.464 145.224 262.391 145.734 262.391C146.349 262.391 146.891 262.495 147.359 262.703C147.833 262.911 148.203 263.227 148.469 263.648C148.74 264.065 148.875 264.589 148.875 265.219V269.156C148.875 269.438 148.898 269.737 148.945 270.055C148.997 270.372 149.073 270.646 149.172 270.875V271H147.664C147.591 270.833 147.534 270.612 147.492 270.336C147.451 270.055 147.43 269.794 147.43 269.555ZM147.68 265.875L147.695 266.891H146.234C145.823 266.891 145.456 266.924 145.133 266.992C144.81 267.055 144.539 267.151 144.32 267.281C144.102 267.411 143.935 267.576 143.82 267.773C143.706 267.966 143.648 268.193 143.648 268.453C143.648 268.719 143.708 268.961 143.828 269.18C143.948 269.398 144.128 269.573 144.367 269.703C144.612 269.828 144.911 269.891 145.266 269.891C145.708 269.891 146.099 269.797 146.438 269.609C146.776 269.422 147.044 269.193 147.242 268.922C147.445 268.651 147.555 268.388 147.57 268.133L148.188 268.828C148.151 269.047 148.052 269.289 147.891 269.555C147.729 269.82 147.513 270.076 147.242 270.32C146.977 270.56 146.659 270.76 146.289 270.922C145.924 271.078 145.513 271.156 145.055 271.156C144.482 271.156 143.979 271.044 143.547 270.82C143.12 270.596 142.786 270.297 142.547 269.922C142.312 269.542 142.195 269.117 142.195 268.648C142.195 268.195 142.284 267.797 142.461 267.453C142.638 267.104 142.893 266.815 143.227 266.586C143.56 266.352 143.961 266.174 144.43 266.055C144.898 265.935 145.422 265.875 146 265.875H147.68ZM156.797 262.547V263.742H152.711V262.547H156.797ZM158.07 262.547V271H156.625V262.547H158.07ZM152.359 262.547H153.812L153.594 266.625C153.557 267.255 153.497 267.812 153.414 268.297C153.336 268.776 153.227 269.188 153.086 269.531C152.951 269.875 152.779 270.156 152.57 270.375C152.367 270.589 152.122 270.747 151.836 270.852C151.549 270.951 151.219 271 150.844 271H150.391V269.727L150.703 269.703C150.927 269.688 151.117 269.635 151.273 269.547C151.435 269.458 151.57 269.328 151.68 269.156C151.789 268.979 151.878 268.753 151.945 268.477C152.018 268.201 152.073 267.872 152.109 267.492C152.151 267.112 152.182 266.669 152.203 266.164L152.359 262.547ZM161.586 265.453H164.125C164.807 265.453 165.383 265.573 165.852 265.812C166.32 266.047 166.674 266.372 166.914 266.789C167.159 267.201 167.281 267.669 167.281 268.195C167.281 268.586 167.214 268.953 167.078 269.297C166.943 269.635 166.74 269.932 166.469 270.188C166.203 270.443 165.872 270.643 165.477 270.789C165.086 270.93 164.635 271 164.125 271H160.531V262.547H161.977V269.812H164.125C164.542 269.812 164.875 269.737 165.125 269.586C165.375 269.435 165.555 269.24 165.664 269C165.773 268.76 165.828 268.51 165.828 268.25C165.828 267.995 165.773 267.745 165.664 267.5C165.555 267.255 165.375 267.052 165.125 266.891C164.875 266.724 164.542 266.641 164.125 266.641H161.586V265.453ZM170.648 268.711L174.547 262.547H176V271H174.547V264.836L170.648 271H169.211V262.547H170.648V268.711ZM173.758 259.484H174.93C174.93 259.891 174.836 260.253 174.648 260.57C174.461 260.883 174.193 261.128 173.844 261.305C173.495 261.482 173.081 261.57 172.602 261.57C171.878 261.57 171.305 261.378 170.883 260.992C170.466 260.602 170.258 260.099 170.258 259.484H171.43C171.43 259.792 171.518 260.062 171.695 260.297C171.872 260.531 172.174 260.648 172.602 260.648C173.018 260.648 173.315 260.531 173.492 260.297C173.669 260.062 173.758 259.792 173.758 259.484ZM177.938 266.867V266.688C177.938 266.078 178.026 265.513 178.203 264.992C178.38 264.466 178.635 264.01 178.969 263.625C179.302 263.234 179.706 262.932 180.18 262.719C180.654 262.5 181.185 262.391 181.773 262.391C182.367 262.391 182.901 262.5 183.375 262.719C183.854 262.932 184.26 263.234 184.594 263.625C184.932 264.01 185.19 264.466 185.367 264.992C185.544 265.513 185.633 266.078 185.633 266.688V266.867C185.633 267.477 185.544 268.042 185.367 268.562C185.19 269.083 184.932 269.539 184.594 269.93C184.26 270.315 183.857 270.617 183.383 270.836C182.914 271.049 182.383 271.156 181.789 271.156C181.195 271.156 180.661 271.049 180.188 270.836C179.714 270.617 179.307 270.315 178.969 269.93C178.635 269.539 178.38 269.083 178.203 268.562C178.026 268.042 177.938 267.477 177.938 266.867ZM179.383 266.688V266.867C179.383 267.289 179.432 267.688 179.531 268.062C179.63 268.432 179.779 268.76 179.977 269.047C180.18 269.333 180.432 269.56 180.734 269.727C181.036 269.888 181.388 269.969 181.789 269.969C182.185 269.969 182.531 269.888 182.828 269.727C183.13 269.56 183.38 269.333 183.578 269.047C183.776 268.76 183.924 268.432 184.023 268.062C184.128 267.688 184.18 267.289 184.18 266.867V266.688C184.18 266.271 184.128 265.878 184.023 265.508C183.924 265.133 183.773 264.802 183.57 264.516C183.372 264.224 183.122 263.995 182.82 263.828C182.523 263.661 182.174 263.578 181.773 263.578C181.378 263.578 181.029 263.661 180.727 263.828C180.43 263.995 180.18 264.224 179.977 264.516C179.779 264.802 179.63 265.133 179.531 265.508C179.432 265.878 179.383 266.271 179.383 266.688ZM193.18 266.211V267.383H188.711V266.211H193.18ZM189.016 262.547V271H187.57V262.547H189.016ZM194.352 262.547V271H192.898V262.547H194.352ZM31.8984 288.789H32.0469C32.8802 288.789 33.5573 288.672 34.0781 288.438C34.599 288.203 35 287.888 35.2812 287.492C35.5625 287.096 35.7552 286.651 35.8594 286.156C35.9635 285.656 36.0156 285.143 36.0156 284.617V282.875C36.0156 282.359 35.9557 281.901 35.8359 281.5C35.7214 281.099 35.5599 280.763 35.3516 280.492C35.1484 280.221 34.9167 280.016 34.6562 279.875C34.3958 279.734 34.1198 279.664 33.8281 279.664C33.4948 279.664 33.1953 279.732 32.9297 279.867C32.6693 279.997 32.4479 280.182 32.2656 280.422C32.0885 280.661 31.9531 280.943 31.8594 281.266C31.7656 281.589 31.7188 281.94 31.7188 282.32C31.7188 282.659 31.7604 282.987 31.8438 283.305C31.9271 283.622 32.0547 283.909 32.2266 284.164C32.3984 284.419 32.612 284.622 32.8672 284.773C33.1276 284.919 33.4323 284.992 33.7812 284.992C34.1042 284.992 34.4062 284.93 34.6875 284.805C34.974 284.674 35.2266 284.5 35.4453 284.281C35.6693 284.057 35.8464 283.805 35.9766 283.523C36.112 283.242 36.1901 282.948 36.2109 282.641H36.8984C36.8984 283.073 36.8125 283.5 36.6406 283.922C36.474 284.339 36.2396 284.719 35.9375 285.062C35.6354 285.406 35.2812 285.682 34.875 285.891C34.4688 286.094 34.026 286.195 33.5469 286.195C32.9844 286.195 32.4974 286.086 32.0859 285.867C31.6745 285.648 31.3359 285.357 31.0703 284.992C30.8099 284.628 30.6146 284.221 30.4844 283.773C30.3594 283.32 30.2969 282.862 30.2969 282.398C30.2969 281.857 30.3724 281.349 30.5234 280.875C30.6745 280.401 30.8984 279.984 31.1953 279.625C31.4922 279.26 31.8594 278.977 32.2969 278.773C32.7396 278.57 33.25 278.469 33.8281 278.469C34.4792 278.469 35.0339 278.599 35.4922 278.859C35.9505 279.12 36.3229 279.469 36.6094 279.906C36.901 280.344 37.1146 280.836 37.25 281.383C37.3854 281.93 37.4531 282.492 37.4531 283.07V283.594C37.4531 284.182 37.4141 284.781 37.3359 285.391C37.263 285.995 37.1198 286.573 36.9062 287.125C36.6979 287.677 36.3932 288.172 35.9922 288.609C35.5911 289.042 35.0677 289.385 34.4219 289.641C33.7812 289.891 32.9896 290.016 32.0469 290.016H31.8984V288.789ZM46.9141 288.812V290H39.4688V288.961L43.1953 284.812C43.6536 284.302 44.0078 283.87 44.2578 283.516C44.513 283.156 44.6901 282.836 44.7891 282.555C44.8932 282.268 44.9453 281.977 44.9453 281.68C44.9453 281.305 44.8672 280.966 44.7109 280.664C44.5599 280.357 44.3359 280.112 44.0391 279.93C43.7422 279.747 43.3828 279.656 42.9609 279.656C42.4557 279.656 42.0339 279.755 41.6953 279.953C41.362 280.146 41.112 280.417 40.9453 280.766C40.7786 281.115 40.6953 281.516 40.6953 281.969H39.25C39.25 281.328 39.3906 280.742 39.6719 280.211C39.9531 279.68 40.3698 279.258 40.9219 278.945C41.474 278.628 42.1536 278.469 42.9609 278.469C43.6797 278.469 44.2943 278.596 44.8047 278.852C45.3151 279.102 45.7057 279.456 45.9766 279.914C46.2526 280.367 46.3906 280.898 46.3906 281.508C46.3906 281.841 46.3333 282.18 46.2188 282.523C46.1094 282.862 45.9557 283.201 45.7578 283.539C45.5651 283.878 45.3385 284.211 45.0781 284.539C44.8229 284.867 44.5495 285.19 44.2578 285.508L41.2109 288.812H46.9141ZM52.2031 285.867V285.688C52.2031 285.078 52.2917 284.513 52.4688 283.992C52.6458 283.466 52.901 283.01 53.2344 282.625C53.5677 282.234 53.9714 281.932 54.4453 281.719C54.9193 281.5 55.4505 281.391 56.0391 281.391C56.6328 281.391 57.1667 281.5 57.6406 281.719C58.1198 281.932 58.526 282.234 58.8594 282.625C59.1979 283.01 59.4557 283.466 59.6328 283.992C59.8099 284.513 59.8984 285.078 59.8984 285.688V285.867C59.8984 286.477 59.8099 287.042 59.6328 287.562C59.4557 288.083 59.1979 288.539 58.8594 288.93C58.526 289.315 58.1224 289.617 57.6484 289.836C57.1797 290.049 56.6484 290.156 56.0547 290.156C55.4609 290.156 54.9271 290.049 54.4531 289.836C53.9792 289.617 53.5729 289.315 53.2344 288.93C52.901 288.539 52.6458 288.083 52.4688 287.562C52.2917 287.042 52.2031 286.477 52.2031 285.867ZM53.6484 285.688V285.867C53.6484 286.289 53.6979 286.688 53.7969 287.062C53.8958 287.432 54.0443 287.76 54.2422 288.047C54.4453 288.333 54.6979 288.56 55 288.727C55.3021 288.888 55.6536 288.969 56.0547 288.969C56.4505 288.969 56.7969 288.888 57.0938 288.727C57.3958 288.56 57.6458 288.333 57.8438 288.047C58.0417 287.76 58.1901 287.432 58.2891 287.062C58.3932 286.688 58.4453 286.289 58.4453 285.867V285.688C58.4453 285.271 58.3932 284.878 58.2891 284.508C58.1901 284.133 58.0391 283.802 57.8359 283.516C57.638 283.224 57.388 282.995 57.0859 282.828C56.7891 282.661 56.4401 282.578 56.0391 282.578C55.6432 282.578 55.2943 282.661 54.9922 282.828C54.6953 282.995 54.4453 283.224 54.2422 283.516C54.0443 283.802 53.8958 284.133 53.7969 284.508C53.6979 284.878 53.6484 285.271 53.6484 285.688ZM63.2812 281.547V290H61.8359V281.547H63.2812ZM68.8281 281.547L64.8203 286.391H62.7969L62.5781 285.125H64.2344L67.0703 281.547H68.8281ZM67.2734 290L64.1641 286.172L65.0938 285.125L69.1094 290H67.2734ZM71.8125 283.172V293.25H70.3594V281.547H71.6875L71.8125 283.172ZM77.5078 285.703V285.867C77.5078 286.482 77.4349 287.052 77.2891 287.578C77.1432 288.099 76.9297 288.552 76.6484 288.938C76.3724 289.323 76.0312 289.622 75.625 289.836C75.2188 290.049 74.7526 290.156 74.2266 290.156C73.6901 290.156 73.2161 290.068 72.8047 289.891C72.3932 289.714 72.0443 289.456 71.7578 289.117C71.4714 288.779 71.2422 288.372 71.0703 287.898C70.9036 287.424 70.7891 286.891 70.7266 286.297V285.422C70.7891 284.797 70.9062 284.237 71.0781 283.742C71.25 283.247 71.4766 282.826 71.7578 282.477C72.0443 282.122 72.3906 281.854 72.7969 281.672C73.2031 281.484 73.6719 281.391 74.2031 281.391C74.7344 281.391 75.2057 281.495 75.6172 281.703C76.0286 281.906 76.375 282.198 76.6562 282.578C76.9375 282.958 77.1484 283.414 77.2891 283.945C77.4349 284.471 77.5078 285.057 77.5078 285.703ZM76.0547 285.867V285.703C76.0547 285.281 76.0104 284.885 75.9219 284.516C75.8333 284.141 75.6953 283.812 75.5078 283.531C75.3255 283.245 75.0911 283.021 74.8047 282.859C74.5182 282.693 74.1771 282.609 73.7812 282.609C73.4167 282.609 73.099 282.672 72.8281 282.797C72.5625 282.922 72.3359 283.091 72.1484 283.305C71.9609 283.513 71.8073 283.753 71.6875 284.023C71.5729 284.289 71.487 284.565 71.4297 284.852V286.875C71.5339 287.24 71.6797 287.583 71.8672 287.906C72.0547 288.224 72.3047 288.482 72.6172 288.68C72.9297 288.872 73.3229 288.969 73.7969 288.969C74.1875 288.969 74.5234 288.888 74.8047 288.727C75.0911 288.56 75.3255 288.333 75.5078 288.047C75.6953 287.76 75.8333 287.432 75.9219 287.062C76.0104 286.688 76.0547 286.289 76.0547 285.867ZM82.8594 290.156C82.2708 290.156 81.737 290.057 81.2578 289.859C80.7839 289.656 80.375 289.372 80.0312 289.008C79.6927 288.643 79.4323 288.211 79.25 287.711C79.0677 287.211 78.9766 286.664 78.9766 286.07V285.742C78.9766 285.055 79.0781 284.443 79.2812 283.906C79.4844 283.365 79.7604 282.906 80.1094 282.531C80.4583 282.156 80.8542 281.872 81.2969 281.68C81.7396 281.487 82.1979 281.391 82.6719 281.391C83.276 281.391 83.7969 281.495 84.2344 281.703C84.6771 281.911 85.0391 282.203 85.3203 282.578C85.6016 282.948 85.8099 283.385 85.9453 283.891C86.0807 284.391 86.1484 284.938 86.1484 285.531V286.18H79.8359V285H84.7031V284.891C84.6823 284.516 84.6042 284.151 84.4688 283.797C84.3385 283.443 84.1302 283.151 83.8438 282.922C83.5573 282.693 83.1667 282.578 82.6719 282.578C82.3438 282.578 82.0417 282.648 81.7656 282.789C81.4896 282.924 81.2526 283.128 81.0547 283.398C80.8568 283.669 80.7031 284 80.5938 284.391C80.4844 284.781 80.4297 285.232 80.4297 285.742V286.07C80.4297 286.471 80.4844 286.849 80.5938 287.203C80.7083 287.552 80.8724 287.859 81.0859 288.125C81.3047 288.391 81.5677 288.599 81.875 288.75C82.1875 288.901 82.5417 288.977 82.9375 288.977C83.4479 288.977 83.8802 288.872 84.2344 288.664C84.5885 288.456 84.8984 288.177 85.1641 287.828L86.0391 288.523C85.8568 288.799 85.625 289.062 85.3438 289.312C85.0625 289.562 84.7161 289.766 84.3047 289.922C83.8984 290.078 83.4167 290.156 82.8594 290.156ZM92.6953 288.078L95.5703 281.547H96.9609L93.1953 290H92.1953L88.4453 281.547H89.8359L92.6953 288.078ZM89.4141 281.547V290H87.9688V281.547H89.4141ZM95.9297 290V281.547H97.3828V290H95.9297ZM104.695 288.555V284.203C104.695 283.87 104.628 283.581 104.492 283.336C104.362 283.086 104.164 282.893 103.898 282.758C103.633 282.622 103.305 282.555 102.914 282.555C102.549 282.555 102.229 282.617 101.953 282.742C101.682 282.867 101.469 283.031 101.312 283.234C101.161 283.438 101.086 283.656 101.086 283.891H99.6406C99.6406 283.589 99.7188 283.289 99.875 282.992C100.031 282.695 100.255 282.427 100.547 282.188C100.844 281.943 101.198 281.75 101.609 281.609C102.026 281.464 102.49 281.391 103 281.391C103.615 281.391 104.156 281.495 104.625 281.703C105.099 281.911 105.469 282.227 105.734 282.648C106.005 283.065 106.141 283.589 106.141 284.219V288.156C106.141 288.438 106.164 288.737 106.211 289.055C106.263 289.372 106.339 289.646 106.438 289.875V290H104.93C104.857 289.833 104.799 289.612 104.758 289.336C104.716 289.055 104.695 288.794 104.695 288.555ZM104.945 284.875L104.961 285.891H103.5C103.089 285.891 102.721 285.924 102.398 285.992C102.076 286.055 101.805 286.151 101.586 286.281C101.367 286.411 101.201 286.576 101.086 286.773C100.971 286.966 100.914 287.193 100.914 287.453C100.914 287.719 100.974 287.961 101.094 288.18C101.214 288.398 101.393 288.573 101.633 288.703C101.878 288.828 102.177 288.891 102.531 288.891C102.974 288.891 103.365 288.797 103.703 288.609C104.042 288.422 104.31 288.193 104.508 287.922C104.711 287.651 104.82 287.388 104.836 287.133L105.453 287.828C105.417 288.047 105.318 288.289 105.156 288.555C104.995 288.82 104.779 289.076 104.508 289.32C104.242 289.56 103.924 289.76 103.555 289.922C103.19 290.078 102.779 290.156 102.32 290.156C101.747 290.156 101.245 290.044 100.812 289.82C100.385 289.596 100.052 289.297 99.8125 288.922C99.5781 288.542 99.4609 288.117 99.4609 287.648C99.4609 287.195 99.5495 286.797 99.7266 286.453C99.9036 286.104 100.159 285.815 100.492 285.586C100.826 285.352 101.227 285.174 101.695 285.055C102.164 284.935 102.688 284.875 103.266 284.875H104.945ZM112.508 281.547H113.953V288.812H117.047V281.547H118.5V288.812H121.586V281.547H123.031V290H112.508V281.547ZM128.781 281.547V290H127.328V281.547H128.781ZM131.617 281.547V282.719H124.547V281.547H131.617ZM135.508 289.125L137.859 281.547H139.406L136.016 291.305C135.938 291.513 135.833 291.737 135.703 291.977C135.578 292.221 135.417 292.453 135.219 292.672C135.021 292.891 134.781 293.068 134.5 293.203C134.224 293.344 133.893 293.414 133.508 293.414C133.393 293.414 133.247 293.398 133.07 293.367C132.893 293.336 132.768 293.31 132.695 293.289L132.688 292.117C132.729 292.122 132.794 292.128 132.883 292.133C132.977 292.143 133.042 292.148 133.078 292.148C133.406 292.148 133.685 292.104 133.914 292.016C134.143 291.932 134.336 291.789 134.492 291.586C134.654 291.388 134.792 291.115 134.906 290.766L135.508 289.125ZM133.781 281.547L135.977 288.109L136.352 289.633L135.312 290.164L132.203 281.547H133.781ZM142.156 283.172V293.25H140.703V281.547H142.031L142.156 283.172ZM147.852 285.703V285.867C147.852 286.482 147.779 287.052 147.633 287.578C147.487 288.099 147.273 288.552 146.992 288.938C146.716 289.323 146.375 289.622 145.969 289.836C145.562 290.049 145.096 290.156 144.57 290.156C144.034 290.156 143.56 290.068 143.148 289.891C142.737 289.714 142.388 289.456 142.102 289.117C141.815 288.779 141.586 288.372 141.414 287.898C141.247 287.424 141.133 286.891 141.07 286.297V285.422C141.133 284.797 141.25 284.237 141.422 283.742C141.594 283.247 141.82 282.826 142.102 282.477C142.388 282.122 142.734 281.854 143.141 281.672C143.547 281.484 144.016 281.391 144.547 281.391C145.078 281.391 145.549 281.495 145.961 281.703C146.372 281.906 146.719 282.198 147 282.578C147.281 282.958 147.492 283.414 147.633 283.945C147.779 284.471 147.852 285.057 147.852 285.703ZM146.398 285.867V285.703C146.398 285.281 146.354 284.885 146.266 284.516C146.177 284.141 146.039 283.812 145.852 283.531C145.669 283.245 145.435 283.021 145.148 282.859C144.862 282.693 144.521 282.609 144.125 282.609C143.76 282.609 143.443 282.672 143.172 282.797C142.906 282.922 142.68 283.091 142.492 283.305C142.305 283.513 142.151 283.753 142.031 284.023C141.917 284.289 141.831 284.565 141.773 284.852V286.875C141.878 287.24 142.023 287.583 142.211 287.906C142.398 288.224 142.648 288.482 142.961 288.68C143.273 288.872 143.667 288.969 144.141 288.969C144.531 288.969 144.867 288.888 145.148 288.727C145.435 288.56 145.669 288.333 145.852 288.047C146.039 287.76 146.177 287.432 146.266 287.062C146.354 286.688 146.398 286.289 146.398 285.867ZM154.555 288.078L157.43 281.547H158.82L155.055 290H154.055L150.305 281.547H151.695L154.555 288.078ZM151.273 281.547V290H149.828V281.547H151.273ZM157.789 290V281.547H159.242V290H157.789ZM161.188 285.867V285.688C161.188 285.078 161.276 284.513 161.453 283.992C161.63 283.466 161.885 283.01 162.219 282.625C162.552 282.234 162.956 281.932 163.43 281.719C163.904 281.5 164.435 281.391 165.023 281.391C165.617 281.391 166.151 281.5 166.625 281.719C167.104 281.932 167.51 282.234 167.844 282.625C168.182 283.01 168.44 283.466 168.617 283.992C168.794 284.513 168.883 285.078 168.883 285.688V285.867C168.883 286.477 168.794 287.042 168.617 287.562C168.44 288.083 168.182 288.539 167.844 288.93C167.51 289.315 167.107 289.617 166.633 289.836C166.164 290.049 165.633 290.156 165.039 290.156C164.445 290.156 163.911 290.049 163.438 289.836C162.964 289.617 162.557 289.315 162.219 288.93C161.885 288.539 161.63 288.083 161.453 287.562C161.276 287.042 161.188 286.477 161.188 285.867ZM162.633 285.688V285.867C162.633 286.289 162.682 286.688 162.781 287.062C162.88 287.432 163.029 287.76 163.227 288.047C163.43 288.333 163.682 288.56 163.984 288.727C164.286 288.888 164.638 288.969 165.039 288.969C165.435 288.969 165.781 288.888 166.078 288.727C166.38 288.56 166.63 288.333 166.828 288.047C167.026 287.76 167.174 287.432 167.273 287.062C167.378 286.688 167.43 286.289 167.43 285.867V285.688C167.43 285.271 167.378 284.878 167.273 284.508C167.174 284.133 167.023 283.802 166.82 283.516C166.622 283.224 166.372 282.995 166.07 282.828C165.773 282.661 165.424 282.578 165.023 282.578C164.628 282.578 164.279 282.661 163.977 282.828C163.68 282.995 163.43 283.224 163.227 283.516C163.029 283.802 162.88 284.133 162.781 284.508C162.682 284.878 162.633 285.271 162.633 285.688ZM174.664 286.281H171.891L171.875 285.125H174.141C174.589 285.125 174.961 285.081 175.258 284.992C175.56 284.904 175.786 284.771 175.938 284.594C176.089 284.417 176.164 284.198 176.164 283.938C176.164 283.734 176.12 283.557 176.031 283.406C175.948 283.25 175.82 283.122 175.648 283.023C175.477 282.919 175.263 282.844 175.008 282.797C174.758 282.745 174.464 282.719 174.125 282.719H172.273V290H170.828V281.547H174.125C174.661 281.547 175.143 281.594 175.57 281.688C176.003 281.781 176.37 281.924 176.672 282.117C176.979 282.305 177.214 282.544 177.375 282.836C177.536 283.128 177.617 283.471 177.617 283.867C177.617 284.122 177.565 284.365 177.461 284.594C177.357 284.823 177.203 285.026 177 285.203C176.797 285.38 176.547 285.526 176.25 285.641C175.953 285.75 175.612 285.82 175.227 285.852L174.664 286.281ZM174.664 290H171.367L172.086 288.828H174.664C175.065 288.828 175.398 288.779 175.664 288.68C175.93 288.576 176.128 288.43 176.258 288.242C176.393 288.049 176.461 287.82 176.461 287.555C176.461 287.289 176.393 287.062 176.258 286.875C176.128 286.682 175.93 286.536 175.664 286.438C175.398 286.333 175.065 286.281 174.664 286.281H172.469L172.484 285.125H175.227L175.75 285.562C176.214 285.599 176.607 285.714 176.93 285.906C177.253 286.099 177.497 286.344 177.664 286.641C177.831 286.932 177.914 287.25 177.914 287.594C177.914 287.99 177.839 288.339 177.688 288.641C177.542 288.943 177.328 289.195 177.047 289.398C176.766 289.596 176.424 289.747 176.023 289.852C175.622 289.951 175.169 290 174.664 290ZM184.836 288.555V284.203C184.836 283.87 184.768 283.581 184.633 283.336C184.503 283.086 184.305 282.893 184.039 282.758C183.773 282.622 183.445 282.555 183.055 282.555C182.69 282.555 182.37 282.617 182.094 282.742C181.823 282.867 181.609 283.031 181.453 283.234C181.302 283.438 181.227 283.656 181.227 283.891H179.781C179.781 283.589 179.859 283.289 180.016 282.992C180.172 282.695 180.396 282.427 180.688 282.188C180.984 281.943 181.339 281.75 181.75 281.609C182.167 281.464 182.63 281.391 183.141 281.391C183.755 281.391 184.297 281.495 184.766 281.703C185.24 281.911 185.609 282.227 185.875 282.648C186.146 283.065 186.281 283.589 186.281 284.219V288.156C186.281 288.438 186.305 288.737 186.352 289.055C186.404 289.372 186.479 289.646 186.578 289.875V290H185.07C184.997 289.833 184.94 289.612 184.898 289.336C184.857 289.055 184.836 288.794 184.836 288.555ZM185.086 284.875L185.102 285.891H183.641C183.229 285.891 182.862 285.924 182.539 285.992C182.216 286.055 181.945 286.151 181.727 286.281C181.508 286.411 181.341 286.576 181.227 286.773C181.112 286.966 181.055 287.193 181.055 287.453C181.055 287.719 181.115 287.961 181.234 288.18C181.354 288.398 181.534 288.573 181.773 288.703C182.018 288.828 182.318 288.891 182.672 288.891C183.115 288.891 183.505 288.797 183.844 288.609C184.182 288.422 184.451 288.193 184.648 287.922C184.852 287.651 184.961 287.388 184.977 287.133L185.594 287.828C185.557 288.047 185.458 288.289 185.297 288.555C185.135 288.82 184.919 289.076 184.648 289.32C184.383 289.56 184.065 289.76 183.695 289.922C183.331 290.078 182.919 290.156 182.461 290.156C181.888 290.156 181.385 290.044 180.953 289.82C180.526 289.596 180.193 289.297 179.953 288.922C179.719 288.542 179.602 288.117 179.602 287.648C179.602 287.195 179.69 286.797 179.867 286.453C180.044 286.104 180.299 285.815 180.633 285.586C180.966 285.352 181.367 285.174 181.836 285.055C182.305 284.935 182.828 284.875 183.406 284.875H185.086ZM82.6641 296.867H83.8516C83.8516 297.378 83.7734 297.784 83.6172 298.086C83.4609 298.383 83.2474 298.612 82.9766 298.773C82.7109 298.935 82.4089 299.057 82.0703 299.141C81.737 299.224 81.3906 299.305 81.0312 299.383C80.5833 299.477 80.1667 299.625 79.7812 299.828C79.401 300.026 79.0729 300.307 78.7969 300.672C78.526 301.036 78.3255 301.51 78.1953 302.094C78.0703 302.677 78.0365 303.398 78.0938 304.258V304.977H76.9062V304.258C76.9062 303.294 76.9974 302.453 77.1797 301.734C77.3672 301.016 77.6302 300.409 77.9688 299.914C78.3073 299.419 78.7083 299.026 79.1719 298.734C79.6406 298.443 80.1562 298.242 80.7188 298.133C81.125 298.055 81.474 297.971 81.7656 297.883C82.0573 297.789 82.2786 297.664 82.4297 297.508C82.5859 297.352 82.6641 297.138 82.6641 296.867ZM80.9531 301.031C81.5052 301.031 81.9974 301.128 82.4297 301.32C82.862 301.513 83.2292 301.781 83.5312 302.125C83.8333 302.469 84.0625 302.875 84.2188 303.344C84.3802 303.807 84.4609 304.312 84.4609 304.859V305.031C84.4609 305.62 84.375 306.167 84.2031 306.672C84.0365 307.172 83.7891 307.609 83.4609 307.984C83.138 308.354 82.7422 308.643 82.2734 308.852C81.8099 309.06 81.2812 309.164 80.6875 309.164C80.0938 309.164 79.5625 309.06 79.0938 308.852C78.6302 308.643 78.2344 308.354 77.9062 307.984C77.5781 307.609 77.3281 307.172 77.1562 306.672C76.9896 306.167 76.9062 305.62 76.9062 305.031V304.859C76.9062 304.729 76.9297 304.602 76.9766 304.477C77.0234 304.352 77.0807 304.224 77.1484 304.094C77.2214 303.964 77.2865 303.826 77.3438 303.68C77.5365 303.211 77.7995 302.776 78.1328 302.375C78.4714 301.974 78.875 301.651 79.3438 301.406C79.8177 301.156 80.3542 301.031 80.9531 301.031ZM80.6719 302.211C80.1406 302.211 79.7031 302.333 79.3594 302.578C79.0208 302.823 78.7682 303.148 78.6016 303.555C78.4349 303.956 78.3516 304.391 78.3516 304.859V305.031C78.3516 305.427 78.3984 305.802 78.4922 306.156C78.5859 306.51 78.7266 306.826 78.9141 307.102C79.1068 307.372 79.349 307.586 79.6406 307.742C79.9375 307.898 80.2865 307.977 80.6875 307.977C81.0885 307.977 81.4349 307.898 81.7266 307.742C82.0182 307.586 82.2578 307.372 82.4453 307.102C82.6328 306.826 82.7734 306.51 82.8672 306.156C82.9609 305.802 83.0078 305.427 83.0078 305.031V304.859C83.0078 304.505 82.9609 304.169 82.8672 303.852C82.7734 303.534 82.6302 303.253 82.4375 303.008C82.25 302.763 82.0078 302.57 81.7109 302.43C81.4193 302.284 81.0729 302.211 80.6719 302.211ZM87.4062 302.172V312.25H85.9531V300.547H87.2812L87.4062 302.172ZM93.1016 304.703V304.867C93.1016 305.482 93.0286 306.052 92.8828 306.578C92.737 307.099 92.5234 307.552 92.2422 307.938C91.9661 308.323 91.625 308.622 91.2188 308.836C90.8125 309.049 90.3464 309.156 89.8203 309.156C89.2839 309.156 88.8099 309.068 88.3984 308.891C87.987 308.714 87.638 308.456 87.3516 308.117C87.0651 307.779 86.8359 307.372 86.6641 306.898C86.4974 306.424 86.3828 305.891 86.3203 305.297V304.422C86.3828 303.797 86.5 303.237 86.6719 302.742C86.8438 302.247 87.0703 301.826 87.3516 301.477C87.638 301.122 87.9844 300.854 88.3906 300.672C88.7969 300.484 89.2656 300.391 89.7969 300.391C90.3281 300.391 90.7995 300.495 91.2109 300.703C91.6224 300.906 91.9688 301.198 92.25 301.578C92.5312 301.958 92.7422 302.414 92.8828 302.945C93.0286 303.471 93.1016 304.057 93.1016 304.703ZM91.6484 304.867V304.703C91.6484 304.281 91.6042 303.885 91.5156 303.516C91.4271 303.141 91.2891 302.812 91.1016 302.531C90.9193 302.245 90.6849 302.021 90.3984 301.859C90.112 301.693 89.7708 301.609 89.375 301.609C89.0104 301.609 88.6927 301.672 88.4219 301.797C88.1562 301.922 87.9297 302.091 87.7422 302.305C87.5547 302.513 87.401 302.753 87.2812 303.023C87.1667 303.289 87.0807 303.565 87.0234 303.852V305.875C87.1276 306.24 87.2734 306.583 87.4609 306.906C87.6484 307.224 87.8984 307.482 88.2109 307.68C88.5234 307.872 88.9167 307.969 89.3906 307.969C89.7812 307.969 90.1172 307.888 90.3984 307.727C90.6849 307.56 90.9193 307.333 91.1016 307.047C91.2891 306.76 91.4271 306.432 91.5156 306.062C91.6042 305.688 91.6484 305.289 91.6484 304.867ZM96.5078 306.711L100.406 300.547H101.859V309H100.406V302.836L96.5078 309H95.0703V300.547H96.5078V306.711ZM109.641 300.547V301.742H105.734V309H104.289V300.547H109.641ZM115.883 307.555V303.203C115.883 302.87 115.815 302.581 115.68 302.336C115.549 302.086 115.352 301.893 115.086 301.758C114.82 301.622 114.492 301.555 114.102 301.555C113.737 301.555 113.417 301.617 113.141 301.742C112.87 301.867 112.656 302.031 112.5 302.234C112.349 302.438 112.273 302.656 112.273 302.891H110.828C110.828 302.589 110.906 302.289 111.062 301.992C111.219 301.695 111.443 301.427 111.734 301.188C112.031 300.943 112.385 300.75 112.797 300.609C113.214 300.464 113.677 300.391 114.188 300.391C114.802 300.391 115.344 300.495 115.812 300.703C116.286 300.911 116.656 301.227 116.922 301.648C117.193 302.065 117.328 302.589 117.328 303.219V307.156C117.328 307.438 117.352 307.737 117.398 308.055C117.451 308.372 117.526 308.646 117.625 308.875V309H116.117C116.044 308.833 115.987 308.612 115.945 308.336C115.904 308.055 115.883 307.794 115.883 307.555ZM116.133 303.875L116.148 304.891H114.688C114.276 304.891 113.909 304.924 113.586 304.992C113.263 305.055 112.992 305.151 112.773 305.281C112.555 305.411 112.388 305.576 112.273 305.773C112.159 305.966 112.102 306.193 112.102 306.453C112.102 306.719 112.161 306.961 112.281 307.18C112.401 307.398 112.581 307.573 112.82 307.703C113.065 307.828 113.365 307.891 113.719 307.891C114.161 307.891 114.552 307.797 114.891 307.609C115.229 307.422 115.497 307.193 115.695 306.922C115.898 306.651 116.008 306.388 116.023 306.133L116.641 306.828C116.604 307.047 116.505 307.289 116.344 307.555C116.182 307.82 115.966 308.076 115.695 308.32C115.43 308.56 115.112 308.76 114.742 308.922C114.378 309.078 113.966 309.156 113.508 309.156C112.935 309.156 112.432 309.044 112 308.82C111.573 308.596 111.24 308.297 111 307.922C110.766 307.542 110.648 307.117 110.648 306.648C110.648 306.195 110.737 305.797 110.914 305.453C111.091 305.104 111.346 304.815 111.68 304.586C112.013 304.352 112.414 304.174 112.883 304.055C113.352 303.935 113.875 303.875 114.453 303.875H116.133ZM121.125 300.547H122.57L122.445 303.711C122.414 304.513 122.323 305.206 122.172 305.789C122.021 306.372 121.828 306.87 121.594 307.281C121.359 307.688 121.096 308.029 120.805 308.305C120.518 308.581 120.221 308.812 119.914 309H119.195L119.234 307.82L119.531 307.812C119.703 307.609 119.87 307.401 120.031 307.188C120.193 306.969 120.341 306.711 120.477 306.414C120.612 306.112 120.724 305.745 120.812 305.312C120.906 304.875 120.966 304.341 120.992 303.711L121.125 300.547ZM121.484 300.547H126.57V309H125.125V301.883H121.484V300.547ZM118.867 307.812H127.656V311.492H126.211V309H120.312V311.492H118.859L118.867 307.812ZM134.242 307.555V303.203C134.242 302.87 134.174 302.581 134.039 302.336C133.909 302.086 133.711 301.893 133.445 301.758C133.18 301.622 132.852 301.555 132.461 301.555C132.096 301.555 131.776 301.617 131.5 301.742C131.229 301.867 131.016 302.031 130.859 302.234C130.708 302.438 130.633 302.656 130.633 302.891H129.188C129.188 302.589 129.266 302.289 129.422 301.992C129.578 301.695 129.802 301.427 130.094 301.188C130.391 300.943 130.745 300.75 131.156 300.609C131.573 300.464 132.036 300.391 132.547 300.391C133.161 300.391 133.703 300.495 134.172 300.703C134.646 300.911 135.016 301.227 135.281 301.648C135.552 302.065 135.688 302.589 135.688 303.219V307.156C135.688 307.438 135.711 307.737 135.758 308.055C135.81 308.372 135.885 308.646 135.984 308.875V309H134.477C134.404 308.833 134.346 308.612 134.305 308.336C134.263 308.055 134.242 307.794 134.242 307.555ZM134.492 303.875L134.508 304.891H133.047C132.635 304.891 132.268 304.924 131.945 304.992C131.622 305.055 131.352 305.151 131.133 305.281C130.914 305.411 130.747 305.576 130.633 305.773C130.518 305.966 130.461 306.193 130.461 306.453C130.461 306.719 130.521 306.961 130.641 307.18C130.76 307.398 130.94 307.573 131.18 307.703C131.424 307.828 131.724 307.891 132.078 307.891C132.521 307.891 132.911 307.797 133.25 307.609C133.589 307.422 133.857 307.193 134.055 306.922C134.258 306.651 134.367 306.388 134.383 306.133L135 306.828C134.964 307.047 134.865 307.289 134.703 307.555C134.542 307.82 134.326 308.076 134.055 308.32C133.789 308.56 133.471 308.76 133.102 308.922C132.737 309.078 132.326 309.156 131.867 309.156C131.294 309.156 130.792 309.044 130.359 308.82C129.932 308.596 129.599 308.297 129.359 307.922C129.125 307.542 129.008 307.117 129.008 306.648C129.008 306.195 129.096 305.797 129.273 305.453C129.451 305.104 129.706 304.815 130.039 304.586C130.372 304.352 130.773 304.174 131.242 304.055C131.711 303.935 132.234 303.875 132.812 303.875H134.492Z" fill="white"/>
<defs>
<clipPath id="clip0_81_34">
<rect width="212.332" height="83.4493" fill="white" transform="translate(1.85449 167.826)"/>
</clipPath>
<clipPath id="clip1_81_34">
<rect width="120.538" height="167.826" fill="white" transform="translate(46.3613)"/>
</clipPath>
</defs>
</svg>
